<svg xmlns="http://www.w3.org/2000/svg" xmlns:xlink="http://www.w3.org/1999/xlink" width="500" zoomAndPan="magnify" viewBox="0 0 375 374.999991" height="500" preserveAspectRatio="xMidYMid meet" version="1.0"><defs><clipPath id="3a63294b04"><path d="M 58.796875 9.363281 L 316.046875 9.363281 L 316.046875 365.613281 L 58.796875 365.613281 Z M 58.796875 9.363281 " clip-rule="nonzero"/></clipPath><clipPath id="6c180c1b86"><path d="M 186 211 L 316.046875 211 L 316.046875 365.613281 L 186 365.613281 Z M 186 211 " clip-rule="nonzero"/></clipPath><clipPath id="216c6e8b3a"><path d="M 74 45 L 316.046875 45 L 316.046875 365.613281 L 74 365.613281 Z M 74 45 " clip-rule="nonzero"/></clipPath></defs><rect x="-37.5" width="450" fill="#ffffff" y="-37.499999" height="449.999989" fill-opacity="1"/><rect x="-37.5" width="450" fill="#586aea" y="-37.499999" height="449.999989" fill-opacity="1"/><g clip-path="url(#3a63294b04)"><path fill="#737373" d="M 316.050781 213.558594 C 316.050781 311.9375 258.484375 365.703125 187.476562 365.703125 C 116.488281 365.703125 58.941406 311.9375 58.941406 213.558594 C 58.941406 115.171875 127.285156 9.421875 187.476562 9.421875 C 249.324219 9.421875 316.050781 115.171875 316.050781 213.558594 " fill-opacity="1" fill-rule="nonzero"/></g><g clip-path="url(#6c180c1b86)"><path fill="#d9d9d9" d="M 187.476562 365.703125 C 187.445312 365.703125 187.410156 365.703125 187.378906 365.703125 C 187.414062 365.703125 187.445312 365.703125 187.476562 365.703125 C 258.484375 365.703125 316.050781 311.9375 316.050781 213.558594 C 316.050781 311.9375 258.484375 365.703125 187.476562 365.703125 M 187.355469 365.703125 C 187.332031 365.703125 187.304688 365.703125 187.277344 365.703125 C 187.304688 365.703125 187.332031 365.703125 187.355469 365.703125 M 187.261719 365.703125 C 187.230469 365.695312 187.207031 365.695312 187.171875 365.695312 C 187.199219 365.695312 187.234375 365.703125 187.261719 365.703125 M 187.148438 365.695312 C 187.125 365.695312 187.101562 365.695312 187.078125 365.695312 C 187.101562 365.695312 187.121094 365.695312 187.148438 365.695312 M 187.050781 365.695312 C 187.023438 365.695312 186.992188 365.695312 186.964844 365.695312 C 186.988281 365.695312 187.027344 365.695312 187.050781 365.695312 M 186.9375 365.695312 C 186.914062 365.695312 186.894531 365.695312 186.871094 365.695312 C 186.894531 365.695312 186.914062 365.695312 186.9375 365.695312 M 186.835938 365.695312 C 186.808594 365.695312 186.78125 365.695312 186.753906 365.695312 C 186.78125 365.695312 186.808594 365.695312 186.835938 365.695312 M 186.71875 365.695312 C 186.707031 365.695312 186.6875 365.695312 186.667969 365.695312 C 186.683594 365.695312 186.707031 365.695312 186.71875 365.695312 M 186.625 365.695312 C 186.605469 365.695312 186.585938 365.695312 186.574219 365.695312 C 186.585938 365.695312 186.609375 365.695312 186.625 365.695312 M 186.503906 365.695312 C 186.488281 365.695312 186.472656 365.695312 186.460938 365.695312 C 186.472656 365.695312 186.488281 365.695312 186.503906 365.695312 M 186.410156 365.691406 C 186.394531 365.691406 186.382812 365.691406 186.375 365.691406 C 186.382812 365.691406 186.394531 365.691406 186.410156 365.691406 M 186.1875 365.691406 C 186.183594 365.691406 186.175781 365.691406 186.171875 365.691406 C 186.175781 365.691406 186.183594 365.691406 186.1875 365.691406 M 316.050781 213.472656 C 316.050781 213.46875 316.050781 213.457031 316.050781 213.449219 C 316.050781 213.460938 316.050781 213.46875 316.050781 213.472656 M 316.050781 213.390625 C 316.050781 213.378906 316.050781 213.375 316.050781 213.359375 C 316.050781 213.371094 316.050781 213.378906 316.050781 213.390625 M 316.050781 213.292969 C 316.050781 213.289062 316.050781 213.285156 316.050781 213.28125 C 316.050781 213.28125 316.050781 213.289062 316.050781 213.292969 M 316.050781 213.195312 C 316.050781 213.1875 316.050781 213.179688 316.050781 213.171875 C 316.050781 213.175781 316.050781 213.1875 316.050781 213.195312 M 316.050781 213.105469 C 316.050781 213.101562 316.050781 213.085938 316.050781 213.082031 C 316.050781 213.09375 316.050781 213.101562 316.050781 213.105469 M 316.050781 213.019531 C 316.050781 213.015625 316.050781 213.003906 316.050781 212.996094 C 316.050781 213.007812 316.050781 213.011719 316.050781 213.019531 M 316.050781 212.921875 C 316.050781 212.917969 316.050781 212.917969 316.050781 212.914062 C 316.050781 212.917969 316.050781 212.917969 316.050781 212.921875 M 316.050781 212.832031 C 316.050781 212.816406 316.050781 212.8125 316.050781 212.800781 C 316.050781 212.8125 316.050781 212.816406 316.050781 212.832031 M 316.050781 212.742188 C 316.050781 212.734375 316.050781 212.730469 316.050781 212.714844 C 316.050781 212.722656 316.050781 212.738281 316.050781 212.742188 M 316.050781 212.652344 C 316.050781 212.644531 316.050781 212.644531 316.050781 212.628906 C 316.050781 212.640625 316.050781 212.648438 316.050781 212.652344 M 316.050781 212.542969 C 316.050781 212.539062 316.050781 212.542969 316.050781 212.539062 C 316.050781 212.542969 316.050781 212.542969 316.050781 212.542969 M 316.050781 212.464844 C 316.050781 212.460938 316.050781 212.445312 316.050781 212.4375 C 316.050781 212.445312 316.050781 212.453125 316.050781 212.464844 M 316.050781 212.375 C 316.050781 212.371094 316.050781 212.355469 316.050781 212.351562 C 316.050781 212.359375 316.050781 212.363281 316.050781 212.375 M 316.050781 212.28125 C 316.050781 212.277344 316.050781 212.269531 316.050781 212.265625 C 316.050781 212.269531 316.050781 212.277344 316.050781 212.28125 M 316.042969 212.179688 L 316.042969 212.167969 C 316.042969 212.171875 316.042969 212.175781 316.042969 212.179688 M 316.042969 212.097656 C 316.042969 212.082031 316.042969 212.082031 316.042969 212.074219 C 316.042969 212.078125 316.042969 212.085938 316.042969 212.097656 M 316.042969 212 C 316.042969 211.996094 316.042969 211.992188 316.042969 211.988281 C 316.042969 211.992188 316.042969 211.996094 316.042969 212 M 316.042969 211.808594 L 316.042969 211.804688 L 316.042969 211.808594 M 316.042969 211.722656 C 316.042969 211.71875 316.042969 211.714844 316.042969 211.710938 C 316.042969 211.714844 316.042969 211.71875 316.042969 211.722656 M 316.039062 211.445312 C 316.039062 211.433594 316.039062 211.441406 316.039062 211.429688 L 316.039062 211.445312 M 316.039062 211.351562 C 316.039062 211.347656 316.039062 211.351562 316.039062 211.339844 L 316.039062 211.351562 M 316.035156 211.070312 L 316.035156 211.066406 L 316.035156 211.070312 " fill-opacity="1" fill-rule="nonzero"/></g><g clip-path="url(#216c6e8b3a)"><path fill="#545454" d="M 187.476562 365.703125 C 187.445312 365.703125 187.414062 365.703125 187.378906 365.703125 C 187.371094 365.703125 187.367188 365.703125 187.355469 365.703125 C 187.332031 365.703125 187.304688 365.703125 187.277344 365.703125 C 187.273438 365.703125 187.265625 365.703125 187.261719 365.703125 C 187.234375 365.703125 187.199219 365.695312 187.171875 365.695312 C 187.164062 365.695312 187.152344 365.695312 187.148438 365.695312 C 187.121094 365.695312 187.101562 365.695312 187.078125 365.695312 C 187.070312 365.695312 187.058594 365.695312 187.050781 365.695312 C 187.027344 365.695312 186.988281 365.695312 186.964844 365.695312 C 186.957031 365.695312 186.945312 365.695312 186.9375 365.695312 C 186.914062 365.695312 186.894531 365.695312 186.871094 365.695312 C 186.855469 365.695312 186.847656 365.695312 186.835938 365.695312 C 186.808594 365.695312 186.78125 365.695312 186.753906 365.695312 C 186.742188 365.695312 186.734375 365.695312 186.71875 365.695312 C 186.707031 365.695312 186.683594 365.695312 186.667969 365.695312 C 186.652344 365.695312 186.640625 365.695312 186.625 365.695312 C 186.609375 365.695312 186.585938 365.695312 186.574219 365.695312 C 186.550781 365.695312 186.527344 365.695312 186.503906 365.695312 C 186.488281 365.695312 186.472656 365.695312 186.460938 365.695312 C 186.441406 365.695312 186.425781 365.691406 186.410156 365.691406 C 186.394531 365.691406 186.382812 365.691406 186.375 365.691406 C 186.3125 365.691406 186.246094 365.691406 186.1875 365.691406 C 186.183594 365.691406 186.175781 365.691406 186.171875 365.691406 C 137.539062 365.238281 95.421875 339.425781 74 291.304688 C 96.507812 312.339844 125.722656 323.371094 157.734375 323.371094 C 228.75 323.371094 286.320312 269.613281 286.320312 171.242188 C 286.320312 127.417969 273.058594 82.171875 252.914062 45.429688 C 288.292969 84.277344 315.328125 148.914062 316.035156 211.066406 L 316.035156 211.070312 C 316.035156 211.160156 316.039062 211.25 316.039062 211.339844 C 316.039062 211.351562 316.039062 211.347656 316.039062 211.351562 C 316.039062 211.382812 316.039062 211.402344 316.039062 211.429688 C 316.039062 211.441406 316.039062 211.433594 316.039062 211.445312 C 316.039062 211.507812 316.039062 211.5625 316.042969 211.625 C 316.042969 211.648438 316.042969 211.679688 316.042969 211.710938 C 316.042969 211.714844 316.042969 211.71875 316.042969 211.722656 C 316.042969 211.75 316.042969 211.773438 316.042969 211.804688 L 316.042969 211.808594 C 316.042969 211.871094 316.042969 211.925781 316.042969 211.988281 C 316.042969 211.992188 316.042969 211.996094 316.042969 212 C 316.042969 212.027344 316.042969 212.050781 316.042969 212.074219 C 316.042969 212.082031 316.042969 212.082031 316.042969 212.097656 C 316.042969 212.121094 316.042969 212.144531 316.042969 212.167969 L 316.042969 212.179688 C 316.042969 212.210938 316.042969 212.234375 316.050781 212.265625 C 316.050781 212.269531 316.050781 212.277344 316.050781 212.28125 C 316.050781 212.304688 316.050781 212.328125 316.050781 212.351562 C 316.050781 212.355469 316.050781 212.371094 316.050781 212.375 C 316.050781 212.398438 316.050781 212.417969 316.050781 212.4375 C 316.050781 212.445312 316.050781 212.460938 316.050781 212.464844 C 316.050781 212.488281 316.050781 212.515625 316.050781 212.539062 C 316.050781 212.542969 316.050781 212.539062 316.050781 212.542969 C 316.050781 212.574219 316.050781 212.601562 316.050781 212.628906 C 316.050781 212.644531 316.050781 212.644531 316.050781 212.652344 C 316.050781 212.675781 316.050781 212.691406 316.050781 212.714844 C 316.050781 212.730469 316.050781 212.734375 316.050781 212.742188 C 316.050781 212.765625 316.050781 212.78125 316.050781 212.800781 C 316.050781 212.8125 316.050781 212.816406 316.050781 212.832031 C 316.050781 212.855469 316.050781 212.882812 316.050781 212.914062 C 316.050781 212.917969 316.050781 212.917969 316.050781 212.921875 C 316.050781 212.945312 316.050781 212.972656 316.050781 212.996094 C 316.050781 213.003906 316.050781 213.015625 316.050781 213.019531 C 316.050781 213.042969 316.050781 213.058594 316.050781 213.082031 C 316.050781 213.085938 316.050781 213.101562 316.050781 213.105469 C 316.050781 213.128906 316.050781 213.152344 316.050781 213.171875 C 316.050781 213.179688 316.050781 213.1875 316.050781 213.195312 C 316.050781 213.230469 316.050781 213.246094 316.050781 213.28125 C 316.050781 213.285156 316.050781 213.289062 316.050781 213.292969 C 316.050781 213.320312 316.050781 213.335938 316.050781 213.359375 C 316.050781 213.375 316.050781 213.378906 316.050781 213.390625 C 316.050781 213.414062 316.050781 213.425781 316.050781 213.449219 C 316.050781 213.457031 316.050781 213.46875 316.050781 213.472656 C 316.050781 213.503906 316.050781 213.53125 316.050781 213.558594 C 316.050781 311.9375 258.484375 365.703125 187.476562 365.703125 " fill-opacity="1" fill-rule="nonzero"/></g><path fill="#a6a6a6" d="M 121.617188 173.570312 C 91.324219 173.578125 83.394531 128.253906 115.027344 79.910156 C 138.554688 44.21875 167.445312 26 184.902344 26 C 190.90625 26 195.558594 28.152344 198.171875 32.488281 C 208.871094 49.355469 185.988281 61.5625 189.042969 117.617188 C 190.75 149.066406 152.726562 173.570312 122.207031 173.570312 C 122.09375 173.570312 121.988281 173.570312 121.875 173.570312 C 121.789062 173.570312 121.699219 173.570312 121.617188 173.570312 " fill-opacity="1" fill-rule="nonzero"/></svg>