<svg xmlns="http://www.w3.org/2000/svg" xmlns:xlink="http://www.w3.org/1999/xlink" width="500" zoomAndPan="magnify" viewBox="0 0 375 374.999991" height="500" preserveAspectRatio="xMidYMid meet" version="1.0"><path stroke-linecap="butt" transform="matrix(0.571171, 0.48607, -0.48607, 0.571171, 14.533375, 126.794684)" fill="none" stroke-linejoin="miter" d="M 0.0000750557 5.003098 L 365.216137 5.001338 " stroke="#ffffff" stroke-width="10" stroke-opacity="1" stroke-miterlimit="4"/><path stroke-linecap="butt" transform="matrix(-0.576516, 0.479718, -0.479718, -0.576516, 363.64583, 134.614342)" fill="none" stroke-linejoin="miter" d="M 0.0000684238 5.002304 L 365.216054 4.998275 " stroke="#ffffff" stroke-width="10" stroke-opacity="1" stroke-miterlimit="4"/><path stroke-linecap="butt" transform="matrix(0.572188, 0.484872, -0.484872, 0.572188, 16.053629, 65.196493)" fill="none" stroke-linejoin="miter" d="M 0.000635254 5.001494 L 365.216248 4.999883 " stroke="#ffffff" stroke-width="10" stroke-opacity="1" stroke-miterlimit="4"/><path stroke-linecap="butt" transform="matrix(-0.576516, 0.479718, -0.479718, -0.576516, 363.64583, 72.80256)" fill="none" stroke-linejoin="miter" d="M 0.00278776 4.999036 L 365.215442 4.999011 " stroke="#ffffff" stroke-width="10" stroke-opacity="1" stroke-miterlimit="4"/><path stroke-linecap="butt" transform="matrix(0.572188, 0.484872, -0.484872, 0.572188, 88.979281, 67.038226)" fill="none" stroke-linejoin="miter" d="M -0.000862381 4.99946 L 365.21475 4.997849 " stroke="#ffffff" stroke-width="10" stroke-opacity="1" stroke-miterlimit="4"/><path stroke-linecap="butt" transform="matrix(-0.576516, 0.479718, -0.479718, -0.576516, 288.339156, 70.959737)" fill="none" stroke-linejoin="miter" d="M -0.0000390084 4.998292 L 365.212615 4.998267 " stroke="#ffffff" stroke-width="10" stroke-opacity="1" stroke-miterlimit="4"/><path stroke-linecap="butt" transform="matrix(0.574537, 0.482087, -0.482087, 0.574537, 219.729571, 120.366407)" fill="none" stroke-linejoin="miter" d="M 0.000505022 4.998166 L 134.572046 4.997951 " stroke="#ffffff" stroke-width="10" stroke-opacity="1" stroke-miterlimit="4"/><path stroke-linecap="butt" transform="matrix(0.57177, 0.485365, -0.485365, 0.57177, 285.805356, 67.038219)" fill="none" stroke-linejoin="miter" d="M 0.00156652 5.001068 L 134.57457 4.999889 " stroke="#ffffff" stroke-width="10" stroke-opacity="1" stroke-miterlimit="4"/><path stroke-linecap="butt" transform="matrix(0.575328, 0.481142, -0.481142, 0.575328, 226.092206, 65.733144)" fill="none" stroke-linejoin="miter" d="M 0.000678591 4.998722 L 242.32085 4.99765 " stroke="#ffffff" stroke-width="10" stroke-opacity="1" stroke-miterlimit="4"/><path stroke-linecap="butt" transform="matrix(0.571707, -0.485439, 0.485439, 0.571707, 9.492749, 130.301168)" fill="none" stroke-linejoin="miter" d="M 0.00156884 5.002127 L 134.572775 4.998688 " stroke="#ffffff" stroke-width="10" stroke-opacity="1" stroke-miterlimit="4"/><path stroke-linecap="butt" transform="matrix(0.571707, -0.485439, 0.485439, 0.571707, 72.994183, 185.689589)" fill="none" stroke-linejoin="miter" d="M 0.00157979 4.99916 L 134.573385 5.003062 " stroke="#ffffff" stroke-width="10" stroke-opacity="1" stroke-miterlimit="4"/><path stroke-linecap="butt" transform="matrix(0.575439, -0.481009, 0.481009, 0.575439, 11.206924, 182.303234)" fill="none" stroke-linejoin="miter" d="M 0.00197651 5.000362 L 242.319394 4.997438 " stroke="#ffffff" stroke-width="10" stroke-opacity="1" stroke-miterlimit="4"/></svg>